<mxfile host="app.diagrams.net" agent="Mozilla/5.0 (Windows NT 10.0; Win64; x64) AppleWebKit/537.36 (KHTML, like Gecko) Chrome/131.0.0.0 Safari/537.36" version="25.0.3">
  <diagram name="Page-1" id="52a04d89-c75d-2922-d76d-85b35f80e030">
    <mxGraphModel grid="1" page="1" gridSize="10" guides="1" tooltips="1" connect="1" arrows="1" fold="1" pageScale="1" pageWidth="1100" pageHeight="850" background="none" math="0" shadow="0">
      <root>
        <mxCell id="0" />
        <mxCell id="1" parent="0" />
        <mxCell id="21ea969265ad0168-30" value="Files" style="html=1;rounded=0;shadow=0;comic=0;labelBackgroundColor=none;strokeWidth=2;fontFamily=Verdana;fontSize=12;align=center;shape=mxgraph.ios7ui.horLines;fillColor=none;" vertex="1" parent="1">
          <mxGeometry x="814" y="360" width="57.19" height="30" as="geometry" />
        </mxCell>
        <mxCell id="17472293e6e8944d-4" value="Metadata files" style="html=1;rounded=0;shadow=0;comic=0;labelBackgroundColor=none;strokeWidth=2;fontFamily=Verdana;fontSize=12;align=center;shape=mxgraph.ios7ui.horLines;fillColor=none;" vertex="1" parent="1">
          <mxGeometry x="711" y="131" width="91" height="34" as="geometry" />
        </mxCell>
        <mxCell id="17472293e6e8944d-30" value="Clients" style="whiteSpace=wrap;html=1;rounded=0;shadow=0;comic=0;labelBackgroundColor=none;strokeWidth=1;fontFamily=Verdana;fontSize=12;align=center;" vertex="1" parent="1">
          <mxGeometry x="50" y="221" width="120" height="50" as="geometry" />
        </mxCell>
        <mxCell id="B2adHmhK0bqTP1TzWlpU-3" value="Hadoop Client API" style="ellipse;whiteSpace=wrap;html=1;rounded=1;shadow=0;comic=0;labelBackgroundColor=none;strokeWidth=1;fontFamily=Verdana;fontSize=12;align=center;" vertex="1" parent="1">
          <mxGeometry x="240" y="212" width="80" height="70" as="geometry" />
        </mxCell>
        <mxCell id="B2adHmhK0bqTP1TzWlpU-12" value="NameNode" style="ellipse;whiteSpace=wrap;html=1;rounded=1;shadow=0;comic=0;labelBackgroundColor=none;strokeWidth=1;fontFamily=Verdana;fontSize=12;align=center;" vertex="1" parent="1">
          <mxGeometry x="638.75" y="165" width="80" height="70" as="geometry" />
        </mxCell>
        <mxCell id="B2adHmhK0bqTP1TzWlpU-15" value="DataNode" style="ellipse;whiteSpace=wrap;html=1;rounded=1;shadow=0;comic=0;labelBackgroundColor=none;strokeWidth=1;fontFamily=Verdana;fontSize=12;align=center;" vertex="1" parent="1">
          <mxGeometry x="800" y="209" width="77.59" height="70" as="geometry" />
        </mxCell>
        <mxCell id="B2adHmhK0bqTP1TzWlpU-23" value="MapReduce files" style="html=1;rounded=0;shadow=0;comic=0;labelBackgroundColor=none;strokeWidth=2;fontFamily=Verdana;fontSize=12;align=center;shape=mxgraph.ios7ui.horLines;fillColor=none;" vertex="1" parent="1">
          <mxGeometry x="390.63" y="-83" width="118.75" height="30" as="geometry" />
        </mxCell>
        <mxCell id="B2adHmhK0bqTP1TzWlpU-31" value="Kerberos" style="whiteSpace=wrap;html=1;rounded=0;shadow=0;comic=0;labelBackgroundColor=none;strokeWidth=1;fontFamily=Verdana;fontSize=12;align=center;" vertex="1" parent="1">
          <mxGeometry x="172" y="98" width="120" height="50" as="geometry" />
        </mxCell>
        <mxCell id="B2adHmhK0bqTP1TzWlpU-34" value="Authentication Tokens" style="html=1;rounded=0;shadow=0;comic=0;labelBackgroundColor=none;strokeWidth=2;fontFamily=Verdana;fontSize=12;align=center;shape=mxgraph.ios7ui.horLines;fillColor=none;" vertex="1" parent="1">
          <mxGeometry x="164.82" y="8" width="138.18" height="32" as="geometry" />
        </mxCell>
        <mxCell id="B2adHmhK0bqTP1TzWlpU-43" value="" style="endArrow=none;dashed=1;html=1;rounded=0;fillColor=#f8cecc;strokeColor=#FF0808;strokeWidth=2;" edge="1" parent="1">
          <mxGeometry width="50" height="50" relative="1" as="geometry">
            <mxPoint x="210" y="300" as="sourcePoint" />
            <mxPoint x="80" y="130" as="targetPoint" />
            <Array as="points">
              <mxPoint x="210" y="200" />
            </Array>
          </mxGeometry>
        </mxCell>
        <mxCell id="B2adHmhK0bqTP1TzWlpU-44" value="" style="endArrow=none;dashed=1;html=1;rounded=0;fillColor=#f8cecc;strokeColor=#FF0808;strokeWidth=2;" edge="1" parent="1">
          <mxGeometry width="50" height="50" relative="1" as="geometry">
            <mxPoint x="210" y="199" as="sourcePoint" />
            <mxPoint x="350" y="154" as="targetPoint" />
            <Array as="points" />
          </mxGeometry>
        </mxCell>
        <mxCell id="B2adHmhK0bqTP1TzWlpU-51" value="" style="endArrow=none;dashed=1;html=1;rounded=0;fillColor=#f8cecc;strokeColor=#FF0808;strokeWidth=2;" edge="1" parent="1">
          <mxGeometry width="50" height="50" relative="1" as="geometry">
            <mxPoint x="874" y="323" as="sourcePoint" />
            <mxPoint x="800" y="323" as="targetPoint" />
            <Array as="points" />
          </mxGeometry>
        </mxCell>
        <mxCell id="B2adHmhK0bqTP1TzWlpU-55" value="&lt;span style=&quot;font-weight: normal;&quot;&gt;HDFS&lt;/span&gt;" style="text;html=1;align=center;verticalAlign=middle;whiteSpace=wrap;rounded=0;fontSize=15;fontStyle=1;fontColor=#3399FF;" vertex="1" parent="1">
          <mxGeometry x="944" y="132" width="70" height="28" as="geometry" />
        </mxCell>
        <mxCell id="qs0hs8LPYN0KyNOKQcVB-3" value="" style="endArrow=none;dashed=1;html=1;rounded=0;fillColor=#f8cecc;strokeColor=#FF0808;strokeWidth=2;" edge="1" parent="1">
          <mxGeometry width="50" height="50" relative="1" as="geometry">
            <mxPoint x="190" y="640" as="sourcePoint" />
            <mxPoint x="190" y="750" as="targetPoint" />
            <Array as="points" />
          </mxGeometry>
        </mxCell>
        <mxCell id="-Lx9tR-yWkvMWzk7q8TR-31" style="edgeStyle=orthogonalEdgeStyle;rounded=0;orthogonalLoop=1;jettySize=auto;html=1;exitX=0.23;exitY=0.928;exitDx=0;exitDy=0;exitPerimeter=0;" edge="1" parent="1">
          <mxGeometry relative="1" as="geometry">
            <Array as="points">
              <mxPoint x="419" y="200" />
              <mxPoint x="636" y="200" />
            </Array>
            <mxPoint x="419.13" y="29.570000000000135" as="sourcePoint" />
            <mxPoint x="636" y="200" as="targetPoint" />
          </mxGeometry>
        </mxCell>
        <mxCell id="-Lx9tR-yWkvMWzk7q8TR-3" value="Scheduler" style="ellipse;whiteSpace=wrap;html=1;rounded=1;shadow=0;comic=0;labelBackgroundColor=none;strokeWidth=1;fontFamily=Verdana;fontSize=12;align=center;" vertex="1" parent="1">
          <mxGeometry x="410.63" y="-25" width="80" height="75" as="geometry" />
        </mxCell>
        <mxCell id="-Lx9tR-yWkvMWzk7q8TR-4" value="Application Manager" style="ellipse;whiteSpace=wrap;html=1;rounded=1;shadow=0;comic=0;labelBackgroundColor=none;strokeWidth=1;fontFamily=Verdana;fontSize=12;align=center;" vertex="1" parent="1">
          <mxGeometry x="530" y="-25" width="80" height="75" as="geometry" />
        </mxCell>
        <mxCell id="-Lx9tR-yWkvMWzk7q8TR-13" style="edgeStyle=orthogonalEdgeStyle;rounded=0;orthogonalLoop=1;jettySize=auto;html=1;" edge="1" parent="1" source="-Lx9tR-yWkvMWzk7q8TR-7" target="-Lx9tR-yWkvMWzk7q8TR-11">
          <mxGeometry relative="1" as="geometry">
            <Array as="points">
              <mxPoint x="410" y="528" />
            </Array>
          </mxGeometry>
        </mxCell>
        <mxCell id="-Lx9tR-yWkvMWzk7q8TR-7" value="Clients" style="whiteSpace=wrap;html=1;rounded=0;shadow=0;comic=0;labelBackgroundColor=none;strokeWidth=1;fontFamily=Verdana;fontSize=12;align=center;" vertex="1" parent="1">
          <mxGeometry x="330" y="603" width="120" height="50" as="geometry" />
        </mxCell>
        <mxCell id="-Lx9tR-yWkvMWzk7q8TR-10" value="HDFS" style="ellipse;shape=doubleEllipse;whiteSpace=wrap;html=1;aspect=fixed;" vertex="1" parent="1">
          <mxGeometry x="570" y="573" width="80" height="80" as="geometry" />
        </mxCell>
        <mxCell id="-Lx9tR-yWkvMWzk7q8TR-15" style="edgeStyle=orthogonalEdgeStyle;rounded=0;orthogonalLoop=1;jettySize=auto;html=1;entryX=0.5;entryY=0;entryDx=0;entryDy=0;" edge="1" parent="1" source="-Lx9tR-yWkvMWzk7q8TR-11" target="-Lx9tR-yWkvMWzk7q8TR-10">
          <mxGeometry relative="1" as="geometry" />
        </mxCell>
        <mxCell id="-Lx9tR-yWkvMWzk7q8TR-11" value="YARN" style="ellipse;shape=doubleEllipse;whiteSpace=wrap;html=1;aspect=fixed;" vertex="1" parent="1">
          <mxGeometry x="460" y="488" width="80" height="80" as="geometry" />
        </mxCell>
        <mxCell id="-Lx9tR-yWkvMWzk7q8TR-12" style="edgeStyle=orthogonalEdgeStyle;rounded=0;orthogonalLoop=1;jettySize=auto;html=1;entryX=-0.011;entryY=0.686;entryDx=0;entryDy=0;entryPerimeter=0;" edge="1" parent="1" source="-Lx9tR-yWkvMWzk7q8TR-7" target="-Lx9tR-yWkvMWzk7q8TR-10">
          <mxGeometry relative="1" as="geometry" />
        </mxCell>
        <mxCell id="-Lx9tR-yWkvMWzk7q8TR-16" value="" style="endArrow=none;dashed=1;html=1;rounded=0;fillColor=#f8cecc;strokeColor=#FF0808;strokeWidth=2;" edge="1" parent="1">
          <mxGeometry width="50" height="50" relative="1" as="geometry">
            <mxPoint x="440" y="573.1700000000001" as="sourcePoint" />
            <mxPoint x="380" y="573" as="targetPoint" />
            <Array as="points" />
          </mxGeometry>
        </mxCell>
        <mxCell id="-Lx9tR-yWkvMWzk7q8TR-17" value="" style="endArrow=none;dashed=1;html=1;rounded=0;fillColor=#f8cecc;strokeColor=#FF0808;strokeWidth=2;" edge="1" parent="1">
          <mxGeometry width="50" height="50" relative="1" as="geometry">
            <mxPoint x="510" y="650.5" as="sourcePoint" />
            <mxPoint x="510" y="605.5" as="targetPoint" />
            <Array as="points" />
          </mxGeometry>
        </mxCell>
        <mxCell id="-Lx9tR-yWkvMWzk7q8TR-18" value="" style="endArrow=none;dashed=1;html=1;rounded=0;fillColor=#f8cecc;strokeColor=#FF0808;strokeWidth=2;" edge="1" parent="1">
          <mxGeometry width="50" height="50" relative="1" as="geometry">
            <mxPoint x="580" y="498" as="sourcePoint" />
            <mxPoint x="580" y="558" as="targetPoint" />
            <Array as="points" />
          </mxGeometry>
        </mxCell>
        <mxCell id="-Lx9tR-yWkvMWzk7q8TR-36" style="edgeStyle=orthogonalEdgeStyle;rounded=0;orthogonalLoop=1;jettySize=auto;html=1;entryX=1;entryY=0.5;entryDx=0;entryDy=0;" edge="1" parent="1" source="-Lx9tR-yWkvMWzk7q8TR-20" target="-Lx9tR-yWkvMWzk7q8TR-24">
          <mxGeometry relative="1" as="geometry">
            <Array as="points">
              <mxPoint x="690" y="-100" />
              <mxPoint x="980" y="-100" />
              <mxPoint x="980" y="13" />
              <mxPoint x="960" y="13" />
            </Array>
          </mxGeometry>
        </mxCell>
        <mxCell id="-Lx9tR-yWkvMWzk7q8TR-20" value="Application&lt;div&gt;Master&lt;/div&gt;" style="ellipse;whiteSpace=wrap;html=1;rounded=1;shadow=0;comic=0;labelBackgroundColor=none;strokeWidth=1;fontFamily=Verdana;fontSize=12;align=center;" vertex="1" parent="1">
          <mxGeometry x="650" y="-24.5" width="80" height="75" as="geometry" />
        </mxCell>
        <mxCell id="-Lx9tR-yWkvMWzk7q8TR-21" value="" style="rounded=0;whiteSpace=wrap;html=1;dashed=1;fillColor=none;fontColor=#3399FF;strokeColor=#3399FF;strokeWidth=2;" vertex="1" parent="1">
          <mxGeometry x="609.7199999999999" y="126" width="401.94" height="279" as="geometry" />
        </mxCell>
        <mxCell id="-Lx9tR-yWkvMWzk7q8TR-22" value="Resource Manager" style="text;html=1;align=center;verticalAlign=middle;whiteSpace=wrap;rounded=0;fontColor=#3399FF;" vertex="1" parent="1">
          <mxGeometry x="567" y="-120" width="120" height="20" as="geometry" />
        </mxCell>
        <mxCell id="-Lx9tR-yWkvMWzk7q8TR-38" style="edgeStyle=orthogonalEdgeStyle;rounded=0;orthogonalLoop=1;jettySize=auto;html=1;entryX=0;entryY=0.5;entryDx=0;entryDy=0;" edge="1" parent="1" source="-Lx9tR-yWkvMWzk7q8TR-23" target="-Lx9tR-yWkvMWzk7q8TR-24">
          <mxGeometry relative="1" as="geometry" />
        </mxCell>
        <mxCell id="-Lx9tR-yWkvMWzk7q8TR-39" style="edgeStyle=orthogonalEdgeStyle;rounded=0;orthogonalLoop=1;jettySize=auto;html=1;entryX=0.5;entryY=0;entryDx=0;entryDy=0;" edge="1" parent="1" source="-Lx9tR-yWkvMWzk7q8TR-23" target="B2adHmhK0bqTP1TzWlpU-15">
          <mxGeometry relative="1" as="geometry">
            <Array as="points">
              <mxPoint x="839" y="90" />
              <mxPoint x="839" y="90" />
            </Array>
          </mxGeometry>
        </mxCell>
        <mxCell id="-Lx9tR-yWkvMWzk7q8TR-23" value="Node&lt;div&gt;Manager&lt;/div&gt;" style="ellipse;whiteSpace=wrap;html=1;rounded=1;shadow=0;comic=0;labelBackgroundColor=none;strokeWidth=1;fontFamily=Verdana;fontSize=12;align=center;" vertex="1" parent="1">
          <mxGeometry x="760" y="-25" width="80" height="75" as="geometry" />
        </mxCell>
        <mxCell id="-Lx9tR-yWkvMWzk7q8TR-41" style="edgeStyle=orthogonalEdgeStyle;rounded=0;orthogonalLoop=1;jettySize=auto;html=1;entryX=1;entryY=0;entryDx=0;entryDy=0;" edge="1" parent="1" source="-Lx9tR-yWkvMWzk7q8TR-24" target="B2adHmhK0bqTP1TzWlpU-15">
          <mxGeometry relative="1" as="geometry">
            <Array as="points">
              <mxPoint x="920" y="219" />
            </Array>
          </mxGeometry>
        </mxCell>
        <mxCell id="-Lx9tR-yWkvMWzk7q8TR-24" value="Container" style="ellipse;whiteSpace=wrap;html=1;rounded=1;shadow=0;comic=0;labelBackgroundColor=none;strokeWidth=1;fontFamily=Verdana;fontSize=12;align=center;" vertex="1" parent="1">
          <mxGeometry x="880" y="-25" width="80" height="75" as="geometry" />
        </mxCell>
        <mxCell id="-Lx9tR-yWkvMWzk7q8TR-26" value="YARN" style="text;html=1;align=center;verticalAlign=middle;whiteSpace=wrap;rounded=0;fontColor=#3399FF;fontStyle=0;fontSize=15;" vertex="1" parent="1">
          <mxGeometry x="946" y="-153" width="60" height="30" as="geometry" />
        </mxCell>
        <mxCell id="-Lx9tR-yWkvMWzk7q8TR-44" value="Config files" style="html=1;rounded=0;shadow=0;comic=0;labelBackgroundColor=none;strokeWidth=2;fontFamily=Verdana;fontSize=12;align=center;shape=mxgraph.ios7ui.horLines;fillColor=none;" vertex="1" parent="1">
          <mxGeometry x="830" y="-83.37" width="80" height="30" as="geometry" />
        </mxCell>
        <mxCell id="-Lx9tR-yWkvMWzk7q8TR-45" value="Logs" style="html=1;rounded=0;shadow=0;comic=0;labelBackgroundColor=none;strokeWidth=2;fontFamily=Verdana;fontSize=12;align=center;shape=mxgraph.ios7ui.horLines;fillColor=none;" vertex="1" parent="1">
          <mxGeometry x="718" y="-83.37" width="50" height="30" as="geometry" />
        </mxCell>
        <mxCell id="-Lx9tR-yWkvMWzk7q8TR-49" value="" style="endArrow=none;dashed=1;html=1;rounded=0;fillColor=#f8cecc;strokeColor=#FF0808;strokeWidth=2;" edge="1" parent="1">
          <mxGeometry width="50" height="50" relative="1" as="geometry">
            <mxPoint x="360" y="214" as="sourcePoint" />
            <mxPoint x="360" y="304" as="targetPoint" />
            <Array as="points" />
          </mxGeometry>
        </mxCell>
        <mxCell id="-Lx9tR-yWkvMWzk7q8TR-51" value="" style="endArrow=none;dashed=1;html=1;rounded=0;fillColor=#f8cecc;strokeColor=#FF0808;strokeWidth=2;" edge="1" parent="1">
          <mxGeometry width="50" height="50" relative="1" as="geometry">
            <mxPoint x="514" y="-15" as="sourcePoint" />
            <mxPoint x="514" y="170" as="targetPoint" />
            <Array as="points" />
          </mxGeometry>
        </mxCell>
        <mxCell id="-Lx9tR-yWkvMWzk7q8TR-57" value="" style="endArrow=none;dashed=1;html=1;rounded=0;fillColor=#f8cecc;strokeColor=#FF0808;strokeWidth=2;" edge="1" parent="1">
          <mxGeometry width="50" height="50" relative="1" as="geometry">
            <mxPoint x="635" y="-10.629999999999995" as="sourcePoint" />
            <mxPoint x="636" y="30" as="targetPoint" />
            <Array as="points">
              <mxPoint x="635.69" y="24.370000000000005" />
            </Array>
          </mxGeometry>
        </mxCell>
        <mxCell id="-Lx9tR-yWkvMWzk7q8TR-58" value="" style="endArrow=none;dashed=1;html=1;rounded=0;fillColor=#f8cecc;strokeColor=#FF0808;strokeWidth=2;" edge="1" parent="1">
          <mxGeometry width="50" height="50" relative="1" as="geometry">
            <mxPoint x="743" y="-15" as="sourcePoint" />
            <mxPoint x="743.69" y="35" as="targetPoint" />
            <Array as="points">
              <mxPoint x="743.69" y="20" />
            </Array>
          </mxGeometry>
        </mxCell>
        <mxCell id="-Lx9tR-yWkvMWzk7q8TR-59" value="" style="endArrow=none;dashed=1;html=1;rounded=0;fillColor=#f8cecc;strokeColor=#FF0808;strokeWidth=2;" edge="1" parent="1">
          <mxGeometry width="50" height="50" relative="1" as="geometry">
            <mxPoint x="955" y="92" as="sourcePoint" />
            <mxPoint x="885" y="92" as="targetPoint" />
            <Array as="points">
              <mxPoint x="935.69" y="92" />
            </Array>
          </mxGeometry>
        </mxCell>
        <mxCell id="-Lx9tR-yWkvMWzk7q8TR-63" value="" style="rounded=0;whiteSpace=wrap;html=1;dashed=1;fillColor=none;fontColor=#3399FF;strokeColor=#3399FF;strokeWidth=2;" vertex="1" parent="1">
          <mxGeometry x="362" y="-160" width="649.25" height="280" as="geometry" />
        </mxCell>
        <mxCell id="-Lx9tR-yWkvMWzk7q8TR-67" style="edgeStyle=orthogonalEdgeStyle;rounded=0;orthogonalLoop=1;jettySize=auto;html=1;entryX=0.489;entryY=1.012;entryDx=0;entryDy=0;entryPerimeter=0;" edge="1" parent="1" source="B2adHmhK0bqTP1TzWlpU-31" target="B2adHmhK0bqTP1TzWlpU-34">
          <mxGeometry relative="1" as="geometry" />
        </mxCell>
        <mxCell id="6k780RswKFFD2-XV0Vy5-3" value="" style="endArrow=classic;startArrow=classic;html=1;rounded=0;entryX=0;entryY=0.5;entryDx=0;entryDy=0;exitX=0.5;exitY=0;exitDx=0;exitDy=0;" edge="1" parent="1" source="17472293e6e8944d-30" target="B2adHmhK0bqTP1TzWlpU-31">
          <mxGeometry width="50" height="50" relative="1" as="geometry">
            <mxPoint x="110" y="240" as="sourcePoint" />
            <mxPoint x="160" y="190" as="targetPoint" />
            <Array as="points">
              <mxPoint x="110" y="123" />
            </Array>
          </mxGeometry>
        </mxCell>
        <mxCell id="6k780RswKFFD2-XV0Vy5-4" value="" style="endArrow=classic;startArrow=classic;html=1;rounded=0;exitX=1;exitY=0.5;exitDx=0;exitDy=0;" edge="1" parent="1" source="17472293e6e8944d-30" target="B2adHmhK0bqTP1TzWlpU-3">
          <mxGeometry width="50" height="50" relative="1" as="geometry">
            <mxPoint x="170" y="270" as="sourcePoint" />
            <mxPoint x="220" y="220" as="targetPoint" />
          </mxGeometry>
        </mxCell>
        <mxCell id="6k780RswKFFD2-XV0Vy5-5" value="" style="endArrow=classic;startArrow=classic;html=1;rounded=0;" edge="1" parent="1">
          <mxGeometry width="50" height="50" relative="1" as="geometry">
            <mxPoint x="272" y="210" as="sourcePoint" />
            <mxPoint x="272" y="150" as="targetPoint" />
          </mxGeometry>
        </mxCell>
        <mxCell id="6k780RswKFFD2-XV0Vy5-7" value="" style="endArrow=classic;startArrow=classic;html=1;rounded=0;entryX=0.266;entryY=0.929;entryDx=0;entryDy=0;entryPerimeter=0;" edge="1" parent="1" target="B2adHmhK0bqTP1TzWlpU-12">
          <mxGeometry width="50" height="50" relative="1" as="geometry">
            <mxPoint x="320" y="259" as="sourcePoint" />
            <mxPoint x="650" y="230" as="targetPoint" />
            <Array as="points">
              <mxPoint x="660" y="259" />
            </Array>
          </mxGeometry>
        </mxCell>
        <mxCell id="6k780RswKFFD2-XV0Vy5-10" value="" style="endArrow=classic;startArrow=classic;html=1;rounded=0;exitX=0.985;exitY=0.683;exitDx=0;exitDy=0;exitPerimeter=0;entryX=0;entryY=0.726;entryDx=0;entryDy=0;entryPerimeter=0;" edge="1" parent="1">
          <mxGeometry width="50" height="50" relative="1" as="geometry">
            <mxPoint x="319.99999999999994" y="259.80999999999995" as="sourcePoint" />
            <mxPoint x="801.2" y="259.81999999999994" as="targetPoint" />
          </mxGeometry>
        </mxCell>
        <mxCell id="6k780RswKFFD2-XV0Vy5-11" value="" style="endArrow=classic;startArrow=classic;html=1;rounded=0;exitX=0.465;exitY=-0.062;exitDx=0;exitDy=0;exitPerimeter=0;" edge="1" parent="1" source="21ea969265ad0168-30" target="B2adHmhK0bqTP1TzWlpU-15">
          <mxGeometry width="50" height="50" relative="1" as="geometry">
            <mxPoint x="510" y="230" as="sourcePoint" />
            <mxPoint x="560" y="180" as="targetPoint" />
          </mxGeometry>
        </mxCell>
        <mxCell id="6k780RswKFFD2-XV0Vy5-15" value="" style="endArrow=classic;html=1;rounded=0;exitX=0.711;exitY=0.954;exitDx=0;exitDy=0;exitPerimeter=0;entryX=0.012;entryY=0.34;entryDx=0;entryDy=0;entryPerimeter=0;" edge="1" parent="1" source="B2adHmhK0bqTP1TzWlpU-12" target="B2adHmhK0bqTP1TzWlpU-15">
          <mxGeometry width="50" height="50" relative="1" as="geometry">
            <mxPoint x="510" y="230" as="sourcePoint" />
            <mxPoint x="799" y="236" as="targetPoint" />
            <Array as="points">
              <mxPoint x="790" y="232" />
            </Array>
          </mxGeometry>
        </mxCell>
        <mxCell id="6k780RswKFFD2-XV0Vy5-16" value="" style="endArrow=classic;startArrow=classic;html=1;rounded=0;entryX=0.257;entryY=0.958;entryDx=0;entryDy=0;exitX=0.264;exitY=0.946;exitDx=0;exitDy=0;exitPerimeter=0;entryPerimeter=0;" edge="1" parent="1" source="-Lx9tR-yWkvMWzk7q8TR-3" target="-Lx9tR-yWkvMWzk7q8TR-23">
          <mxGeometry width="50" height="50" relative="1" as="geometry">
            <mxPoint x="510" y="130" as="sourcePoint" />
            <mxPoint x="560" y="80" as="targetPoint" />
            <Array as="points">
              <mxPoint x="432" y="110" />
              <mxPoint x="640" y="110" />
              <mxPoint x="780" y="110" />
            </Array>
          </mxGeometry>
        </mxCell>
        <mxCell id="6k780RswKFFD2-XV0Vy5-17" value="" style="endArrow=classic;startArrow=classic;html=1;rounded=0;exitX=0.384;exitY=0.995;exitDx=0;exitDy=0;exitPerimeter=0;entryX=0.375;entryY=0.993;entryDx=0;entryDy=0;entryPerimeter=0;" edge="1" parent="1" source="-Lx9tR-yWkvMWzk7q8TR-3" target="-Lx9tR-yWkvMWzk7q8TR-20">
          <mxGeometry width="50" height="50" relative="1" as="geometry">
            <mxPoint x="494" y="40" as="sourcePoint" />
            <mxPoint x="700" y="50" as="targetPoint" />
            <Array as="points">
              <mxPoint x="441" y="90" />
              <mxPoint x="600" y="89.5" />
              <mxPoint x="680" y="90" />
            </Array>
          </mxGeometry>
        </mxCell>
        <mxCell id="6k780RswKFFD2-XV0Vy5-18" value="" style="endArrow=classic;startArrow=classic;html=1;rounded=0;exitX=1;exitY=0.5;exitDx=0;exitDy=0;entryX=0;entryY=0.5;entryDx=0;entryDy=0;" edge="1" parent="1" source="-Lx9tR-yWkvMWzk7q8TR-3" target="-Lx9tR-yWkvMWzk7q8TR-4">
          <mxGeometry width="50" height="50" relative="1" as="geometry">
            <mxPoint x="540" y="30" as="sourcePoint" />
            <mxPoint x="590" y="-20" as="targetPoint" />
          </mxGeometry>
        </mxCell>
        <mxCell id="6k780RswKFFD2-XV0Vy5-20" value="" style="endArrow=classic;startArrow=classic;html=1;rounded=0;entryX=0;entryY=0.49;entryDx=0;entryDy=0;entryPerimeter=0;exitX=1;exitY=0.5;exitDx=0;exitDy=0;" edge="1" parent="1" source="-Lx9tR-yWkvMWzk7q8TR-4" target="-Lx9tR-yWkvMWzk7q8TR-20">
          <mxGeometry width="50" height="50" relative="1" as="geometry">
            <mxPoint x="619.38" y="10" as="sourcePoint" />
            <mxPoint x="729.38" y="-10" as="targetPoint" />
          </mxGeometry>
        </mxCell>
        <mxCell id="6k780RswKFFD2-XV0Vy5-23" value="" style="endArrow=classic;startArrow=classic;html=1;rounded=0;entryX=0.491;entryY=1.045;entryDx=0;entryDy=0;entryPerimeter=0;exitX=1;exitY=0.5;exitDx=0;exitDy=0;" edge="1" parent="1" source="B2adHmhK0bqTP1TzWlpU-12" target="17472293e6e8944d-4">
          <mxGeometry width="50" height="50" relative="1" as="geometry">
            <mxPoint x="718.75" y="209" as="sourcePoint" />
            <mxPoint x="850.337" y="163.25199999999995" as="targetPoint" />
            <Array as="points">
              <mxPoint x="756" y="200" />
            </Array>
          </mxGeometry>
        </mxCell>
        <mxCell id="6k780RswKFFD2-XV0Vy5-24" value="" style="endArrow=classic;startArrow=classic;html=1;rounded=0;entryX=0.494;entryY=1.038;entryDx=0;entryDy=0;entryPerimeter=0;exitX=0.5;exitY=0;exitDx=0;exitDy=0;" edge="1" parent="1" source="-Lx9tR-yWkvMWzk7q8TR-23" target="-Lx9tR-yWkvMWzk7q8TR-44">
          <mxGeometry width="50" height="50" relative="1" as="geometry">
            <mxPoint x="640" y="-30" as="sourcePoint" />
            <mxPoint x="690" y="-80" as="targetPoint" />
            <Array as="points">
              <mxPoint x="800" y="-40" />
              <mxPoint x="830" y="-40" />
              <mxPoint x="870" y="-40" />
            </Array>
          </mxGeometry>
        </mxCell>
        <mxCell id="6k780RswKFFD2-XV0Vy5-25" value="" style="endArrow=classic;startArrow=classic;html=1;rounded=0;entryX=0.5;entryY=0;entryDx=0;entryDy=0;exitX=0.52;exitY=1.025;exitDx=0;exitDy=0;exitPerimeter=0;" edge="1" parent="1" source="-Lx9tR-yWkvMWzk7q8TR-45" target="-Lx9tR-yWkvMWzk7q8TR-23">
          <mxGeometry width="50" height="50" relative="1" as="geometry">
            <mxPoint x="640" y="-30" as="sourcePoint" />
            <mxPoint x="690" y="-80" as="targetPoint" />
            <Array as="points">
              <mxPoint x="744" y="-40" />
              <mxPoint x="800" y="-40" />
            </Array>
          </mxGeometry>
        </mxCell>
        <mxCell id="6k780RswKFFD2-XV0Vy5-26" value="" style="endArrow=classic;html=1;rounded=0;exitX=1;exitY=0.5;exitDx=0;exitDy=0;entryX=0;entryY=0.5;entryDx=0;entryDy=0;" edge="1" parent="1" source="-Lx9tR-yWkvMWzk7q8TR-20" target="-Lx9tR-yWkvMWzk7q8TR-23">
          <mxGeometry width="50" height="50" relative="1" as="geometry">
            <mxPoint x="750" y="60" as="sourcePoint" />
            <mxPoint x="800" y="10" as="targetPoint" />
          </mxGeometry>
        </mxCell>
        <mxCell id="6k780RswKFFD2-XV0Vy5-27" value="" style="endArrow=classic;startArrow=classic;html=1;rounded=0;exitX=0.436;exitY=-0.017;exitDx=0;exitDy=0;exitPerimeter=0;" edge="1" parent="1" source="-Lx9tR-yWkvMWzk7q8TR-3">
          <mxGeometry width="50" height="50" relative="1" as="geometry">
            <mxPoint x="500" y="-30" as="sourcePoint" />
            <mxPoint x="446" y="-50" as="targetPoint" />
          </mxGeometry>
        </mxCell>
        <mxCell id="6k780RswKFFD2-XV0Vy5-29" value="R2, R3, R7, R9" style="rounded=1;whiteSpace=wrap;html=1;fillColor=#e1d5e7;strokeColor=#9673a6;" vertex="1" parent="1">
          <mxGeometry x="230" y="290" width="100" height="20" as="geometry" />
        </mxCell>
        <mxCell id="6k780RswKFFD2-XV0Vy5-31" value="R3, R10" style="rounded=1;whiteSpace=wrap;html=1;fillColor=#e1d5e7;strokeColor=#9673a6;" vertex="1" parent="1">
          <mxGeometry x="860" y="279" width="50" height="20" as="geometry" />
        </mxCell>
        <mxCell id="6k780RswKFFD2-XV0Vy5-32" value="R3" style="rounded=1;whiteSpace=wrap;html=1;fillColor=#e1d5e7;strokeColor=#9673a6;" vertex="1" parent="1">
          <mxGeometry x="877.59" y="366" width="30" height="20" as="geometry" />
        </mxCell>
        <mxCell id="6k780RswKFFD2-XV0Vy5-33" value="R3, R8" style="rounded=1;whiteSpace=wrap;html=1;fillColor=#e1d5e7;strokeColor=#9673a6;" vertex="1" parent="1">
          <mxGeometry x="723" y="207" width="44" height="20" as="geometry" />
        </mxCell>
        <mxCell id="6k780RswKFFD2-XV0Vy5-34" value="" style="endArrow=none;dashed=1;html=1;rounded=0;fillColor=#f8cecc;strokeColor=#FF0808;strokeWidth=2;" edge="1" parent="1">
          <mxGeometry width="50" height="50" relative="1" as="geometry">
            <mxPoint x="781" y="180" as="sourcePoint" />
            <mxPoint x="732.5" y="180" as="targetPoint" />
            <Array as="points">
              <mxPoint x="783.19" y="180" />
            </Array>
          </mxGeometry>
        </mxCell>
        <mxCell id="6k780RswKFFD2-XV0Vy5-35" value="R8" style="rounded=1;whiteSpace=wrap;html=1;fillColor=#e1d5e7;strokeColor=#9673a6;" vertex="1" parent="1">
          <mxGeometry x="802" y="138" width="30" height="20" as="geometry" />
        </mxCell>
        <mxCell id="6k780RswKFFD2-XV0Vy5-36" value="R4&lt;span style=&quot;color: rgba(0, 0, 0, 0); font-family: monospace; font-size: 0px; text-align: start; text-wrap-mode: nowrap;&quot;&gt;%3CmxGraphModel%3E%3Croot%3E%3CmxCell%20id%3D%220%22%2F%3E%3CmxCell%20id%3D%221%22%20parent%3D%220%22%2F%3E%3CmxCell%20id%3D%222%22%20value%3D%22R3%22%20style%3D%22rounded%3D1%3BwhiteSpace%3Dwrap%3Bhtml%3D1%3BfillColor%3D%23e1d5e7%3BstrokeColor%3D%239673a6%3B%22%20vertex%3D%221%22%20parent%3D%221%22%3E%3CmxGeometry%20x%3D%22860%22%20y%3D%22279%22%20width%3D%2230%22%20height%3D%2220%22%20as%3D%22geometry%22%2F%3E%3C%2FmxCell%3E%3C%2Froot%3E%3C%2FmxGraphModel%3E&lt;/span&gt;" style="rounded=1;whiteSpace=wrap;html=1;fillColor=#e1d5e7;strokeColor=#9673a6;" vertex="1" parent="1">
          <mxGeometry x="512" y="-78" width="30" height="20" as="geometry" />
        </mxCell>
        <mxCell id="6k780RswKFFD2-XV0Vy5-37" value="R8" style="rounded=1;whiteSpace=wrap;html=1;fillColor=#e1d5e7;strokeColor=#9673a6;" vertex="1" parent="1">
          <mxGeometry x="771" y="-79" width="30" height="20" as="geometry" />
        </mxCell>
        <mxCell id="6k780RswKFFD2-XV0Vy5-38" value="R2" style="rounded=1;whiteSpace=wrap;html=1;fillColor=#e1d5e7;strokeColor=#9673a6;" vertex="1" parent="1">
          <mxGeometry x="912" y="-79" width="30" height="20" as="geometry" />
        </mxCell>
        <mxCell id="6k780RswKFFD2-XV0Vy5-39" value="R3, R4, R5, R7" style="rounded=1;whiteSpace=wrap;html=1;fillColor=#e1d5e7;strokeColor=#9673a6;" vertex="1" parent="1">
          <mxGeometry x="450" y="54.75" width="60" height="30" as="geometry" />
        </mxCell>
        <mxCell id="6k780RswKFFD2-XV0Vy5-40" value="R3, R5, R9" style="rounded=1;whiteSpace=wrap;html=1;fillColor=#e1d5e7;strokeColor=#9673a6;" vertex="1" parent="1">
          <mxGeometry x="537" y="59.25" width="70" height="20.5" as="geometry" />
        </mxCell>
        <mxCell id="6k780RswKFFD2-XV0Vy5-41" value="R3, R4, R5, R6, R9" style="rounded=1;whiteSpace=wrap;html=1;fillColor=#e1d5e7;strokeColor=#9673a6;" vertex="1" parent="1">
          <mxGeometry x="690" y="53.25" width="70" height="34.75" as="geometry" />
        </mxCell>
        <mxCell id="6k780RswKFFD2-XV0Vy5-42" value="R3, R5, R7" style="rounded=1;whiteSpace=wrap;html=1;fillColor=#e1d5e7;strokeColor=#9673a6;" vertex="1" parent="1">
          <mxGeometry x="786.97" y="56.25" width="48" height="29.5" as="geometry" />
        </mxCell>
        <mxCell id="6k780RswKFFD2-XV0Vy5-46" value="R3, R4, R5, R6, R10" style="rounded=1;whiteSpace=wrap;html=1;fillColor=#e1d5e7;strokeColor=#9673a6;" vertex="1" parent="1">
          <mxGeometry x="930" y="53" width="70" height="30" as="geometry" />
        </mxCell>
        <mxCell id="6k780RswKFFD2-XV0Vy5-48" value="" style="endArrow=none;dashed=1;html=1;rounded=0;fillColor=#f8cecc;strokeColor=#FF0808;strokeWidth=2;" edge="1" parent="1">
          <mxGeometry width="50" height="50" relative="1" as="geometry">
            <mxPoint x="90" y="610" as="sourcePoint" />
            <mxPoint x="90" y="720" as="targetPoint" />
            <Array as="points" />
          </mxGeometry>
        </mxCell>
        <mxCell id="6k780RswKFFD2-XV0Vy5-49" value="" style="endArrow=none;dashed=1;html=1;rounded=0;fillColor=#f8cecc;strokeColor=#FF0808;strokeWidth=2;" edge="1" parent="1">
          <mxGeometry width="50" height="50" relative="1" as="geometry">
            <mxPoint x="20" y="550" as="sourcePoint" />
            <mxPoint x="20" y="660" as="targetPoint" />
            <Array as="points" />
          </mxGeometry>
        </mxCell>
        <mxCell id="ve38P5YXIQ2qUhd9WlvT-4" value="Config files" style="html=1;rounded=0;shadow=0;comic=0;labelBackgroundColor=none;strokeWidth=2;fontFamily=Verdana;fontSize=12;align=center;shape=mxgraph.ios7ui.horLines;fillColor=none;" vertex="1" parent="1">
          <mxGeometry x="567" y="-83" width="80" height="30" as="geometry" />
        </mxCell>
        <mxCell id="ve38P5YXIQ2qUhd9WlvT-6" value="R2" style="rounded=1;whiteSpace=wrap;html=1;fillColor=#e1d5e7;strokeColor=#9673a6;" vertex="1" parent="1">
          <mxGeometry x="650" y="-79" width="30" height="20" as="geometry" />
        </mxCell>
        <mxCell id="ve38P5YXIQ2qUhd9WlvT-15" style="edgeStyle=orthogonalEdgeStyle;rounded=0;orthogonalLoop=1;jettySize=auto;html=1;entryX=0.525;entryY=1.043;entryDx=0;entryDy=0;entryPerimeter=0;strokeColor=default;startArrow=classic;startFill=1;" edge="1" parent="1" source="-Lx9tR-yWkvMWzk7q8TR-4" target="ve38P5YXIQ2qUhd9WlvT-4">
          <mxGeometry relative="1" as="geometry">
            <Array as="points">
              <mxPoint x="570" y="-40" />
              <mxPoint x="609" y="-40" />
            </Array>
          </mxGeometry>
        </mxCell>
        <mxCell id="ve38P5YXIQ2qUhd9WlvT-16" style="edgeStyle=orthogonalEdgeStyle;rounded=0;orthogonalLoop=1;jettySize=auto;html=1;entryX=0.326;entryY=0.011;entryDx=0;entryDy=0;entryPerimeter=0;startArrow=classic;startFill=1;" edge="1" parent="1" source="B2adHmhK0bqTP1TzWlpU-3" target="-Lx9tR-yWkvMWzk7q8TR-4">
          <mxGeometry relative="1" as="geometry">
            <Array as="points">
              <mxPoint x="370" y="260" />
              <mxPoint x="370" y="-110" />
              <mxPoint x="556" y="-110" />
            </Array>
          </mxGeometry>
        </mxCell>
        <mxCell id="ve38P5YXIQ2qUhd9WlvT-34" style="edgeStyle=orthogonalEdgeStyle;rounded=0;orthogonalLoop=1;jettySize=auto;html=1;exitX=0;exitY=0;exitDx=0;exitDy=0;entryX=1;entryY=0;entryDx=0;entryDy=0;endArrow=none;endFill=0;dashed=1;strokeColor=#3399FF;" edge="1" parent="1" source="ve38P5YXIQ2qUhd9WlvT-29" target="ve38P5YXIQ2qUhd9WlvT-32">
          <mxGeometry relative="1" as="geometry" />
        </mxCell>
        <mxCell id="ve38P5YXIQ2qUhd9WlvT-35" style="edgeStyle=orthogonalEdgeStyle;rounded=0;orthogonalLoop=1;jettySize=auto;html=1;exitX=1;exitY=0;exitDx=0;exitDy=0;entryX=0;entryY=0;entryDx=0;entryDy=0;endArrow=none;endFill=0;dashed=1;strokeColor=#3399FF;" edge="1" parent="1" source="ve38P5YXIQ2qUhd9WlvT-29" target="ve38P5YXIQ2qUhd9WlvT-32">
          <mxGeometry relative="1" as="geometry">
            <mxPoint x="500" y="-130.33333333333337" as="targetPoint" />
            <Array as="points">
              <mxPoint x="380" y="-122" />
            </Array>
          </mxGeometry>
        </mxCell>
        <mxCell id="ve38P5YXIQ2qUhd9WlvT-29" value="" style="shape=partialRectangle;whiteSpace=wrap;html=1;bottom=1;right=1;left=1;top=0;fillColor=none;routingCenterX=-0.5;rotation=-90;strokeColor=#3399FF;dashed=1;" vertex="1" parent="1">
          <mxGeometry x="613.72" y="-111.03" width="83.96" height="62.38" as="geometry" />
        </mxCell>
        <mxCell id="ve38P5YXIQ2qUhd9WlvT-32" value="" style="shape=partialRectangle;whiteSpace=wrap;html=1;bottom=1;right=1;left=1;top=0;fillColor=none;routingCenterX=-0.5;dashed=1;strokeColor=#3399FF;" vertex="1" parent="1">
          <mxGeometry x="380" y="-25" width="241" height="125" as="geometry" />
        </mxCell>
      </root>
    </mxGraphModel>
  </diagram>
</mxfile>
